<?xml version="1.0" encoding="UTF-8" standalone="no"?>
<svg width="50px" height="44px" viewBox="0 0 50 44" version="1.1" xmlns="http://www.w3.org/2000/svg" xmlns:xlink="http://www.w3.org/1999/xlink">
    <!-- Generator: Sketch 39.1 (31720) - http://www.bohemiancoding.com/sketch -->
    <title>Group</title>
    <desc>Created with Sketch.</desc>
    <defs></defs>
    <g id="Page-1" stroke="none" stroke-width="1" fill="none" fill-rule="evenodd">
        <g id="404-icon" fill="#BBBBBB">
            <g id="Group">
                <path d="M43.7378947,43.75 L6.49368421,43.75 C4.74315789,43.75 3.32,42.3242105 3.32,40.5763158 L3.32,3.33157895 C3.32,1.58210526 4.74315789,0.158421053 6.49368421,0.158421053 L43.7378947,0.158421053 C45.4878947,0.158421053 46.9115789,1.58210526 46.9115789,3.33157895 L46.9115789,40.5763158 C46.9115789,42.3242105 45.4878947,43.75 43.7378947,43.75 L43.7378947,43.75 Z M6.49368421,3.26736842 C6.45789474,3.26736842 6.42894737,3.29631579 6.42894737,3.33157895 L6.42894737,40.5763158 C6.42894737,40.6110526 6.45789474,40.64 6.49368421,40.64 L43.7378947,40.64 C43.7736842,40.64 43.8021053,40.6110526 43.8021053,40.5763158 L43.8021053,3.33157895 C43.8021053,3.29684211 43.7736842,3.26736842 43.7378947,3.26736842 L6.49368421,3.26736842 L6.49368421,3.26736842 Z" id="Shape"></path>
                <circle id="Oval" cx="15.6326316" cy="21.9526316" r="3.24947368"></circle>
                <ellipse id="Oval" cx="34.5957895" cy="21.9526316" rx="3.24894737" ry="3.24894737"></ellipse>
                <ellipse id="Oval" cx="15.3478947" cy="6.06789474" rx="10.82" ry="5.66368421"></ellipse>
                <ellipse id="Oval" cx="24.8668421" cy="7.81684211" rx="10.8194737" ry="6.35526316"></ellipse>
                <ellipse id="Oval" cx="35.1584211" cy="6.06789474" rx="10.8189474" ry="5.66368421"></ellipse>
                <path d="M5.34210526,24.91 C5.34210526,25.7342105 4.67736842,26.4021053 3.85894737,26.4021053 L1.71684211,26.4021053 C0.898947368,26.4021053 0.235789474,25.7342105 0.235789474,24.91 L0.235789474,17.2815789 C0.235263158,16.4573684 0.898947368,15.7894737 1.71684211,15.7894737 L3.85894737,15.7894737 C4.67789474,15.7894737 5.34210526,16.4573684 5.34210526,17.2815789 L5.34210526,24.91 L5.34210526,24.91 Z" id="Shape"></path>
                <path d="M50,24.91 C50,25.7342105 49.3315789,26.4021053 48.5078947,26.4021053 L46.3515789,26.4021053 C45.5278947,26.4021053 44.86,25.7342105 44.86,24.91 L44.86,17.2815789 C44.86,16.4573684 45.5278947,15.7894737 46.3515789,15.7894737 L48.5078947,15.7894737 C49.3315789,15.7894737 50,16.4573684 50,17.2815789 L50,24.91 L50,24.91 Z" id="Shape"></path>
                <path d="M20.7321053,17.7452632 C20.7321053,18.1715789 20.4542105,18.5168421 20.11,18.5168421 L11.1557895,18.5168421 C10.8126316,18.5168421 10.5342105,18.1715789 10.5342105,17.7452632 L10.5342105,17.0368421 C10.5342105,16.6105263 10.8121053,16.2663158 11.1557895,16.2663158 L20.11,16.2663158 C20.4536842,16.2663158 20.7321053,16.6110526 20.7321053,17.0368421 L20.7321053,17.7452632 L20.7321053,17.7452632 Z" id="Shape"></path>
                <path d="M39.6957895,17.7452632 C39.6957895,18.1715789 39.4173684,18.5168421 39.0731579,18.5168421 L30.1189474,18.5168421 C29.7763158,18.5168421 29.4973684,18.1715789 29.4973684,17.7452632 L29.4973684,17.0368421 C29.4973684,16.6105263 29.7757895,16.2663158 30.1189474,16.2663158 L39.0736842,16.2663158 C39.4173684,16.2663158 39.6963158,16.6110526 39.6963158,17.0368421 L39.6963158,17.7452632 L39.6957895,17.7452632 Z" id="Shape"></path>
                <path d="M32.1421053,35.1478947 L31.4589474,35.1478947 C30.4668421,33.8557895 28.6642105,32.4131579 25.5494737,32.4131579 L25.5447368,32.4168421 L25.5405263,32.4131579 C22.4263158,32.4131579 20.6231579,33.8557895 19.6315789,35.1478947 L18.9478947,35.1478947 L17.4663158,35.1478947 C17.4663158,35.1478947 19.02,29.6763158 25.54,29.6763158 L25.5447368,29.6815789 L25.5510526,29.6763158 C32.07,29.6763158 33.6231579,35.1478947 33.6231579,35.1478947 L32.1421053,35.1478947 L32.1421053,35.1478947 Z" id="Shape"></path>
            </g>
        </g>
    </g>
</svg>