<?xml version="1.0" encoding="UTF-8" standalone="no"?>
<svg width="50px" height="50px" viewBox="0 0 50 50" version="1.1" xmlns="http://www.w3.org/2000/svg" xmlns:xlink="http://www.w3.org/1999/xlink">
    <!-- Generator: Sketch 3.8.3 (29802) - http://www.bohemiancoding.com/sketch -->
    <title>Group</title>
    <desc>Created with Sketch.</desc>
    <defs></defs>
    <g id="Page-1" stroke="none" stroke-width="1" fill="none" fill-rule="evenodd">
        <g id="Group" transform="translate(25.000000, 25.000000) scale(-1, 1) translate(-25.000000, -25.000000) " fill="#FFFFFF">
            <path d="M18.396,36.281 C13.619,36.281 9.128,34.421 5.75,31.043 C2.372,27.665 0.512,23.174 0.512,18.397 C0.512,13.62 2.372,9.129 5.75,5.751 C9.127,2.373 13.619,0.512 18.396,0.512 C23.173,0.512 27.665,2.372 31.042,5.751 C38.015,12.724 38.015,24.07 31.042,31.043 C27.665,34.421 23.174,36.281 18.396,36.281 L18.396,36.281 Z M18.396,3.513 C14.42,3.513 10.682,5.061 7.871,7.873 C5.059,10.685 3.512,14.422 3.512,18.397 C3.512,22.372 5.06,26.11 7.871,28.922 C10.683,31.734 14.42,33.281 18.396,33.281 C22.372,33.281 26.11,31.733 28.921,28.922 C34.724,23.119 34.724,13.676 28.921,7.873 C26.11,5.061 22.373,3.513 18.396,3.513 L18.396,3.513 Z" id="Shape"></path>
            <path d="M47.987,49.488 C47.603,49.488 47.219,49.342 46.926,49.049 L28.922,31.043 C28.336,30.457 28.336,29.508 28.922,28.922 C29.508,28.336 30.457,28.336 31.043,28.922 L49.048,46.928 C49.634,47.514 49.634,48.463 49.048,49.049 C48.755,49.342 48.371,49.488 47.987,49.488 L47.987,49.488 Z" id="Shape"></path>
        </g>
    </g>
</svg>